<?xml version="1.0" encoding="utf-8"?>
<!-- Generator: Adobe Illustrator 26.2.1, SVG Export Plug-In . SVG Version: 6.00 Build 0)  -->
<svg version="1.1" id="Layer_1" xmlns="http://www.w3.org/2000/svg" xmlns:xlink="http://www.w3.org/1999/xlink" x="0px" y="0px"
	 viewBox="0 0 50 49.9" style="enable-background:new 0 0 50 49.9;" xml:space="preserve">
<style type="text/css">
	.st0{fill:#B7AB98;}
	.st1{opacity:0.7;fill:#B7AB98;}
</style>
<g>
	<path class="st0" d="M40.4,45.4l-0.9,0.9c-0.7,0.7-3.3,2.8-8.1,2.8c-4.3,0-11.2-1.8-20.2-10.6C-6.6,21.2,2.9,11.4,3.3,11l0.9-0.9
		l9.8,9.5l-1.7,1.7c-0.5,0.5-0.5,1.3,0,1.8c0,0,0,0,0,0l14.7,14.4c0.5,0.5,1.3,0.5,1.9,0l1.7-1.7L40.4,45.4z"/>
	<path class="st0" d="M45.4,39c0,1-0.4,2-1.2,2.7L43,42.8l-9.8-9.5l1.1-1.1c1.5-1.5,4.1-1.5,5.6,0l4.2,4.1
		C44.9,37,45.4,37.9,45.4,39z"/>
	<path class="st0" d="M19,13.2c0,1-0.4,2-1.2,2.7l-1.2,1.1L6.9,7.5L8,6.4c1.5-1.5,4.1-1.5,5.6,0l4.2,4.1C18.6,11.2,19,12.2,19,13.2z
		"/>
</g>
<path class="st1" d="M49,22.3c0-11.6-9.4-21-20.9-21v4.2c6.8,0,12.9,4.1,15.5,10.4c0.8,2,1.3,4.2,1.3,6.4H49z"/>
<path class="st0" d="M39.7,17.5c0.6,1.5,1,3.2,1,4.8h-3.8c0-4.9-3.9-8.8-8.8-8.8h0V9.7C33.2,9.7,37.7,12.8,39.7,17.5"/>
</svg>
