    <svg xmlns="http://www.w3.org/2000/svg" viewBox="0 0 49.68 49.69" fill="#eb593a">
      <g data-name="effect-logo">
        <path
          class="cls-1"
          d="M49.68,25.33A24.84,24.84,0,0,1,0,24.83a24.41,24.41,0,0,1,.18-3A24.87,24.87,0,0,1,24.79,0H41.87V15.6A13.62,13.62,0,0,1,28.25,29.23H23.36A5.37,5.37,0,0,0,18,34.59c0,3.46,4.05,5.81,2.44,5.81a8.76,8.76,0,0,1,2.92-17h4.88A7.78,7.78,0,0,0,36,15.59V5.84H24.86a18.75,18.75,0,0,0-19,19,19,19,0,0,0,19.1,19A24.72,24.72,0,0,0,48.26,27.28C48.48,26.69,49.68,23.83,49.68,25.33Z"
        />
      </g>
    </svg>