<svg xmlns="http://www.w3.org/2000/svg" viewBox="0 0 16 16"><defs><style>.cls-1{fill:#eb593a;}.cls-2{fill:#fff;}</style></defs><g id="Layer_2" data-name="Layer 2"><g id="Layer_1-2" data-name="Layer 1"><rect class="cls-1" width="16" height="16" rx="8"/><path d="M12.46,12.22l.13-.15a6,6,0,0,0,1.46-3.86c0-.17-.06-.1-.14,0a.33.33,0,0,0-.09.12s-.06.05-.1.11-.27.46-.31.58a6.47,6.47,0,0,1-1.17,2,6,6,0,0,1-4.3,1.78A4.73,4.73,0,0,1,4,5.43,4.16,4.16,0,0,1,4.36,5,4.72,4.72,0,0,1,7.63,3.75h2.75v2.4a1.88,1.88,0,0,1-.33,1.07,1.87,1.87,0,0,1-1.3.51H7.56a2.12,2.12,0,0,0-1.65.79l-.08.1-.08.08a2.16,2.16,0,0,0,.79,3.57c.11,0,.11,0,.07-.11h0c.11,0,.11,0,.06-.12h0c.11,0,.11-.05.06-.13h0c.4,0-.6-.58-.6-1.43a1.34,1.34,0,0,1,.19-.68,1.3,1.3,0,0,1,.84-.3h1.2a3.36,3.36,0,0,0,2.44-1.06L11,8.32a4.15,4.15,0,0,0,.43-.51,3.37,3.37,0,0,0,.66-2V2H7.91A6.11,6.11,0,0,0,3.07,4.38L3,4.48A6.08,6.08,0,0,0,1.55,7.7c0,.24,0,.48-.05.73A6.13,6.13,0,0,0,12,12.71C12.18,12.55,12.32,12.39,12.46,12.22Z"/><path class="cls-2" d="M14.13,8.11A6.13,6.13,0,0,1,1.88,8c0-.25,0-.49,0-.73A6.14,6.14,0,0,1,8,1.87H12.2V5.71A3.37,3.37,0,0,1,8.84,9.08H7.64A1.32,1.32,0,0,0,6.32,10.4c0,.85,1,1.43.6,1.43a2.16,2.16,0,0,1,.72-4.2h1.2a1.92,1.92,0,0,0,1.92-1.92V3.31H8A4.62,4.62,0,0,0,3.32,8,4.68,4.68,0,0,0,8,12.69a6.1,6.1,0,0,0,5.76-4.1C13.83,8.45,14.13,7.74,14.13,8.11Z"/></g></g></svg>